<svg xmlns="http://www.w3.org/2000/svg" viewBox="0 0 88.51 176.81"><path d="M56.83,156.31c.29,3.23.48,6.53.56,9.8,0,2.78,0,5.73-1.15,8A3.91,3.91,0,0,1,54,176.29c-1.34.31-2.67-.8-3.39-2.26a13,13,0,0,1-1-5,43.91,43.91,0,0,1,.43-8.65,13.53,13.53,0,0,1,1.28-4.48c.72-1.32,1.89-2.3,3.12-2.19A3,3,0,0,1,56.83,156.31Z" fill="#fff4eb"/><path d="M47.27,153a67.77,67.77,0,0,1,.58,12c-.17,3.72-.72,7.69-2.81,10.27-1.14,1.39-3,2.2-4.22.91a5.35,5.35,0,0,1-1-2.08,38.76,38.76,0,0,1-1.24-13.53c.17-3.13.63-6.44,2.28-8.69a4.39,4.39,0,0,1,1.83-1.57c1.91-.78,4.14,1,4.74,3.46C47.4,153.79,47.38,153.82,47.27,153Z" fill="#fff4eb"/><path d="M63.17,68A22.49,22.49,0,0,1,67.42,74c8.76,16.16,14.63,34.79,18.61,53.9,1.34,6.4,2.49,13,1.93,19.33a40.49,40.49,0,0,1-23.19,15.39c-8.65,2.12-17.6,1.6-26.33.14a73.27,73.27,0,0,1-20.78-6.25A46.3,46.3,0,0,1,0,141.45C9,111.6,19.69,106,28.13,92.55,31.3,87.48,33,79.84,39.08,72c4.57-6,8.25-9.42,13.62-9.42S60.13,65.17,63.17,68Z" fill="#78898f"/><path d="M64.77,162.65A40.49,40.49,0,0,0,88,147.26a19.78,19.78,0,0,0-7.21-5.32c-3.88-1.7-7.94-2.47-11.84-4-11.38-4.55-20.86-16.41-24.84-31-3.87-14.14-2.43-30.58,3.72-43.3-3,1.46-5.67,4.34-8.71,8.27C33,79.8,31.33,87.45,28.13,92.52,19.66,106,9,111.56,0,141.45a46.3,46.3,0,0,0,17.66,15.09,72.31,72.31,0,0,0,20.78,6.25C47.17,164.25,56.12,164.77,64.77,162.65Z" fill="#646d7a"/><path d="M61.28,24.69A12.68,12.68,0,0,1,68,29.81,23.25,23.25,0,0,1,72.5,45.07a9,9,0,0,0,.11,3.27c.32,1,1,1.81,1.35,2.8a6.68,6.68,0,0,1-.5,4.71,17,17,0,0,1-11.57,9.57,19.59,19.59,0,0,1-14.93-3A19.45,19.45,0,0,1,39.66,43a29.83,29.83,0,0,1,5.12-10.44,23.85,23.85,0,0,1,7.16-7.16C54.89,23.65,58.23,23.89,61.28,24.69Z" fill="#fff4eb"/><path d="M64.12,61.34a7,7,0,0,1-2.49,0,2.36,2.36,0,0,1-1.78-1.57,2.76,2.76,0,0,1,.56-2.16,4.93,4.93,0,0,1,5.46-2.24c2,.7,3,3.63,1.48,5.12A3.67,3.67,0,0,1,64.12,61.34Z" fill="#e3b5b0"/><path d="M67.78,49.22c0,1.09,0,2.61-.45,3a.85.85,0,0,1-1.41-.45,7.53,7.53,0,0,1-.24-2.67C65.82,46.82,66,45,66.8,45,67.38,45,67.7,46.4,67.78,49.22Z" fill="#646d7a"/><path d="M81.79,95.35a6.86,6.86,0,0,0,3,3.23l2.8,2a2.5,2.5,0,0,1,.85.83c.39.87-.45,1.88-1.38,2.15a6.67,6.67,0,0,1-3.43-.08,13.39,13.39,0,0,1-4.51-1.53,5.53,5.53,0,0,1-2.73-3.77,3.47,3.47,0,0,1,2.24-3.78C79.82,94,81.53,94.5,81.79,95.35Z" fill="#fff4eb"/><path d="M55.09,66.94c3.54,3.81,5.11,9.14,8.69,12.88,5.49,5.7,14.73,6.77,19.63,13A3,3,0,0,1,84,93.86a2.49,2.49,0,0,1-.15,1.4c-.65,1.95-2.25,3.4-3.8,4.78-5.14,4.48-10.7,8.73-17.15,11S49,113.36,43.15,109.77c-4.74-2.93-7.92-8-9.59-13.33s-2-11-2-16.61A33.87,33.87,0,0,1,32.34,71a12.54,12.54,0,0,1,4.77-7.29c3.44-2.33,8-2.11,12-.73A15.49,15.49,0,0,1,55.09,66.94Z" fill="#78898f"/><path d="M62.92,111a26.86,26.86,0,0,0,2.91-1.18c-2.5-3.54-5.93-6.49-9.06-9.56C52.34,96,48.28,91,46.26,85.06s-1.7-12.88,2-17.87a7.22,7.22,0,0,1,3.53-2.82l.16,0a13.48,13.48,0,0,0-2.85-1.4c-3.91-1.38-8.53-1.59-12,.74A12.56,12.56,0,0,0,32.35,71a32.94,32.94,0,0,0-.77,8.85c.05,5.6.33,11.26,2,16.6s4.84,10.4,9.58,13.33C49,113.36,56.48,113.32,62.92,111Z" fill="#646d7a"/><path d="M73,28.56c-1.65-2.85-4.64-4.72-7.7-5.89a17,17,0,0,0-5.57-1.28A14.56,14.56,0,0,0,52.93,23c-5.73,2.79-9.6,8.55-11.41,14.7a20.23,20.23,0,0,0-.5,2.21c-3.79,5.65-7.64,11.24-12.65,15.79-4.64,4.21-10.27,7.57-13.53,13A15.71,15.71,0,0,0,12.93,80.9a11.72,11.72,0,0,0,7.74,7.93A33.85,33.85,0,0,1,10.73,94c-2,.75-4.11,1.46-5.57,3a3.52,3.52,0,0,0-1,1.92,4.06,4.06,0,0,0,.56,2.29,13.46,13.46,0,0,0,11.51,7.27A5.42,5.42,0,0,0,19,108a6.79,6.79,0,0,0,2.36-2.72A39.23,39.23,0,0,0,25.9,91.5a17.56,17.56,0,0,0,3.16.13,30.4,30.4,0,0,0,9-1.44c6.74-2.37,11.72-8.42,14.27-15.1s3-14,2.84-21.15c0-1.68-.11-3.38-.19-5.06A5.41,5.41,0,0,0,57,48.59a9.59,9.59,0,0,0,4.19-3.41,23.23,23.23,0,0,0,4.78-16,15.18,15.18,0,0,1,6.15,8.57C74.6,35.46,74.68,31.41,73,28.56Z" fill="#787676"/><path d="M23.12,92.51a3.71,3.71,0,0,0,.68.13c-.74-1.7-2.62-2.45-4.53-2.69.11-.11.18-.21.26-.29A37.86,37.86,0,0,1,10.7,94c-2,.75-4.11,1.47-5.57,3a3.43,3.43,0,0,0-1,1.92,4.15,4.15,0,0,0,.56,2.29,12.56,12.56,0,0,0,1.19,1.92c3.61-2.77,7.72-5.22,12.15-4.61a35.54,35.54,0,0,0,4.17.69,4.74,4.74,0,0,0,2-.42c.42-1.28.79-2.59,1.11-3.92A8.61,8.61,0,0,0,23.12,92.51Z" fill="#6b6568"/><path d="M60.6,30.18c1.85-2.29,3.71-4.95,4-7.8a16.65,16.65,0,0,0-4.81-1,14.55,14.55,0,0,0-6.84,1.57c-5.73,2.8-9.6,8.55-11.41,14.7a16.81,16.81,0,0,0-.5,2.21c-3.79,5.65-7.64,11.24-12.65,15.8-4.64,4.2-10.27,7.56-13.53,12.94A15.76,15.76,0,0,0,12.93,80.9a11.78,11.78,0,0,0,7.43,7.83A38.08,38.08,0,0,0,25.05,80a120.82,120.82,0,0,1,13.24-24.1C45,46.7,53.43,39,60.6,30.18Z" fill="#6b6568"/><ellipse cx="39.03" cy="36.76" rx="32.28" ry="11.17" transform="translate(-14.49 33.61) rotate(-39.92)" fill="#78898f"/><path d="M53.12,20C51.74,17.32,28.37,5.25,16.91.51a1.47,1.47,0,0,0-2.44.38,4.28,4.28,0,0,0,0,2.87q4.05,16.83,7.82,33.72c-6.07,7-9.49,13.53-9,17.61,4.85-.91,9.47-3.47,13.69-6.18C35.85,43.21,44.23,36.5,50.46,28a12.24,12.24,0,0,0,1.36-2.29c.21-.35.39-.72.58-1.07C53.09,23.21,53.86,21.45,53.12,20Z" fill="#646d7a"/><path d="M53.41,21.05a2.44,2.44,0,0,0-.29-1C51.74,17.32,28.37,5.25,16.91.51a1.47,1.47,0,0,0-2.44.38,1,1,0,0,0-.11.26A46.54,46.54,0,0,1,27,10.63c6.66,6.69,4.38,11.78,13.05,17.77C43.78,31,51,24.11,53.41,21.05Z" fill="#78898f"/><path d="M25.61,90.38a17.28,17.28,0,0,1,16,.26A.73.73,0,0,1,42,91a1,1,0,0,1-.13.91,40,40,0,0,0-2.42,6.23c-.53,1.84-1,3.81-2.41,5.09-1.75,1.62-4.56,1.65-6.77.69a18.17,18.17,0,0,1-5.57-4.47c-1.24-1.34-2.57-2.91-2.44-4.74C22.48,92.61,24.34,91,25.61,90.38Z" fill="#ffeca9"/><path d="M23.73,93.68a14.77,14.77,0,0,1,7.26,1A21.13,21.13,0,0,1,35.66,97a6.36,6.36,0,0,1,.72.53c.1.11.24.24.24.4s-.29.45-.56.42a1.37,1.37,0,0,1-.69-.37,9,9,0,0,0-2.63-1.41,4.52,4.52,0,0,0-1.59-.24,16.56,16.56,0,0,0-2.25.51,5.36,5.36,0,0,1-5.12-1.87,1.17,1.17,0,0,1-.32-.66C23.46,94,23.62,93.71,23.73,93.68Z" fill="#f5d791"/><path d="M21.26,91.47a14.84,14.84,0,0,0-6.37-13.64,27,27,0,0,0-4.45-2.26L7.86,74.45a1.75,1.75,0,0,0-.47-.13c-.56,0-.93.58-1.12,1.12-1,3-.42,6.39-.79,9.58-.16,1.44-.54,2.83-.69,4.27a2.86,2.86,0,0,0,0,1.27A2.59,2.59,0,0,0,5.9,91.79a12.26,12.26,0,0,0,8,2.34c1.86-.13,3.74-.69,5.54-.21a2.15,2.15,0,0,0,.93.13C21.36,93.84,21.15,92.37,21.26,91.47Z" fill="#ffeca9"/><path d="M19.51,90.4a32.2,32.2,0,0,0-8.89-7,3.22,3.22,0,0,0-1.75-.5.36.36,0,0,0-.29.13c-.13.21.13.45.37.56A7.09,7.09,0,0,1,12,86.33c.27.45.48.93.74,1.36a10.65,10.65,0,0,0,1.7,2.1,8.32,8.32,0,0,0,2.28,1.81A4.69,4.69,0,0,0,19.3,92c.23,0,.55,0,.69-.29C20.2,91.34,19.75,90.67,19.51,90.4Z" fill="#f5d791"/><path d="M21.05,89c-.88.21-1.81,2.21-2.36,3.57-.32.77-.93,1.3-.46,2,.32.48,3.16,2.91,4.35,2a3.46,3.46,0,0,0,1.22-2.29,11.72,11.72,0,0,0,.64-3.25C24.31,90.59,22,88.81,21.05,89Z" fill="#ffeca9"/><path d="M22.58,96.64a3.46,3.46,0,0,0,1.22-2.29,11.72,11.72,0,0,0,.64-3.25c0-.06-.05-.11-.1-.19a.26.26,0,0,0-.14,0,.81.81,0,0,0-.16.32,3.49,3.49,0,0,1-.9,1.71,3,3,0,0,1-2,.72c-.72,0-1.43-.11-2.15-.16a1.73,1.73,0,0,0-.64,0,1,1,0,0,0-.29.14.92.92,0,0,0,.11.88C18.55,95.09,21.39,97.52,22.58,96.64Z" fill="#f5d791"/></svg>