<svg xmlns="http://www.w3.org/2000/svg" viewBox="0 0 100.5 200.82"><path d="M64.19,176.85c.33,3.65.54,7.38.63,11.07.06,3.14,0,6.47-1.3,9.06A4.45,4.45,0,0,1,61,199.42c-1.51.35-3-.9-3.83-2.55A14.58,14.58,0,0,1,56,191.18a50.75,50.75,0,0,1,.48-9.78A15.38,15.38,0,0,1,58,176.34c.82-1.49,2.14-2.59,3.53-2.47A3.41,3.41,0,0,1,64.19,176.85Z" fill="#ffebdb"/><path d="M53.39,173.08A76.66,76.66,0,0,1,54,186.64c-.18,4.21-.81,8.69-3.17,11.61-1.29,1.56-3.39,2.48-4.77,1a6,6,0,0,1-1.16-2.35,43.87,43.87,0,0,1-1.4-15.28c.19-3.53.71-7.28,2.57-9.82a5.11,5.11,0,0,1,2.07-1.77c2.16-.88,4.68,1.1,5.36,3.91C53.53,174,53.51,174,53.39,173.08Z" fill="#ffebdb"/><path d="M71.35,77.06a25.32,25.32,0,0,1,4.79,6.87c9.9,18.25,16.53,39.29,21,60.87,1.51,7.23,2.8,14.64,2.17,21.83A45.69,45.69,0,0,1,73.16,184c-9.78,2.4-19.88,1.81-29.75.16-8-1.33-16-3.33-23.47-7.06A52.32,52.32,0,0,1,0,160.07c10.2-33.71,22.24-40,31.77-55.22,3.59-5.73,5.49-14.37,12.37-23.28,5.15-6.71,9.32-10.63,15.38-10.63S67.91,73.92,71.35,77.06Z" fill="#745a8f"/><path d="M73.16,184a45.69,45.69,0,0,0,26.18-17.38,22.38,22.38,0,0,0-8.14-6c-4.38-1.92-9-2.79-13.37-4.55-12.85-5.14-23.56-18.53-28-35C45.4,105.12,47,86.56,54,72.19c-3.41,1.65-6.4,4.91-9.83,9.34-6.85,8.91-8.75,17.55-12.37,23.28C22.2,120.08,10.2,126.32,0,160.07a52.32,52.32,0,0,0,19.94,17,81.36,81.36,0,0,0,23.47,7.06C53.28,185.82,63.38,186.41,73.16,184Z" fill="#504d7a"/><path d="M69.21,28.2c3.15.82,5.69,3.13,7.64,5.78a26.23,26.23,0,0,1,5,17.24,10.23,10.23,0,0,0,.12,3.7c.36,1.11,1.14,2,1.53,3.15A7.52,7.52,0,0,1,83,63.4,19.12,19.12,0,0,1,69.9,74.2,22.17,22.17,0,0,1,53,70.86a22,22,0,0,1-8.23-22c1-4.3,3.23-8.18,5.78-11.79,2.21-3.13,4.76-6.17,8.09-8.09S65.77,27.3,69.21,28.2Z" fill="#ffebdb"/><path d="M72.42,69.59a8.09,8.09,0,0,1-2.82,0,2.69,2.69,0,0,1-2-1.77,3.17,3.17,0,0,1,.63-2.44c1.32-2,3.9-3.31,6.17-2.52s3.39,4.09,1.68,5.77A4.16,4.16,0,0,1,72.42,69.59Z" fill="#e38f86"/><path d="M76.55,55.91c0,1.23.06,3-.51,3.43a1,1,0,0,1-1.59-.51,8.27,8.27,0,0,1-.27-3c.15-2.62.33-4.73,1.26-4.73C76.1,51.09,76.46,52.72,76.55,55.91Z" fill="#504d7a"/><path d="M92.38,108c.5,1.59,2,2.69,3.35,3.65l3.17,2.2a2.94,2.94,0,0,1,.95.94c.44,1-.51,2.12-1.56,2.43a7.6,7.6,0,0,1-3.87-.09,15.18,15.18,0,0,1-5.1-1.73,6.25,6.25,0,0,1-3.08-4.25,3.92,3.92,0,0,1,2.53-4.27C90.14,106.49,92.08,107.05,92.38,108Z" fill="#ffebdb"/><path d="M62.22,75.92c4,4.3,5.78,10.32,9.81,14.55,6.2,6.44,16.64,7.64,22.18,14.64a3.46,3.46,0,0,1,.68,1.21,2.77,2.77,0,0,1-.17,1.58c-.73,2.2-2.54,3.85-4.28,5.4-5.82,5.06-12.09,9.86-19.37,12.43s-15.75,2.61-22.33-1.44c-5.36-3.31-9-9-10.83-15.06s-2.2-12.43-2.26-18.75a38.27,38.27,0,0,1,.88-10,14.13,14.13,0,0,1,5.38-8.23c3.89-2.63,9.1-2.39,13.51-.83A17.43,17.43,0,0,1,62.22,75.92Z" fill="#745a8f"/><path d="M71.07,125.73c1.11-.38,2.19-.84,3.28-1.33-2.83-4-6.7-7.34-10.23-10.8-5-4.92-9.59-10.55-11.87-17.22S50.32,81.84,54.49,76.2a8.14,8.14,0,0,1,4-3.18s.12,0,.17,0a15.3,15.3,0,0,0-3.22-1.58c-4.42-1.56-9.63-1.8-13.52.83a14.23,14.23,0,0,0-5.38,8.23,37.3,37.3,0,0,0-.87,10c0,6.32.37,12.72,2.25,18.75s5.47,11.75,10.83,15.06C55.32,128.34,63.79,128.3,71.07,125.73Z" fill="#504d7a"/><path d="M82.49,32.57c-1.86-3.22-5.24-5.32-8.69-6.65a19,19,0,0,0-6.29-1.44,16.51,16.51,0,0,0-7.73,1.77c-6.47,3.16-10.84,9.66-12.88,16.61a22.7,22.7,0,0,0-.57,2.5C42.05,51.73,37.7,58.05,32,63.19,26.8,68,20.45,71.74,16.76,77.81A17.75,17.75,0,0,0,14.6,91.68a13.24,13.24,0,0,0,8.75,9,38.26,38.26,0,0,1-11.23,5.84c-2.28.84-4.65,1.65-6.29,3.4A4,4,0,0,0,4.69,112a4.66,4.66,0,0,0,.63,2.59,15.21,15.21,0,0,0,13,8.21,6.07,6.07,0,0,0,3.11-.6,7.54,7.54,0,0,0,2.67-3.07,44,44,0,0,0,5.15-15.52,20.32,20.32,0,0,0,3.57.15A34.2,34.2,0,0,0,43,102.18c7.61-2.68,13.25-9.51,16.12-17.06S62.45,69.3,62.3,61.24c0-1.9-.12-3.82-.21-5.72a6.16,6.16,0,0,0,2.33-.33,10.89,10.89,0,0,0,4.74-3.85,26.25,26.25,0,0,0,5.39-18.11,17.17,17.17,0,0,1,7,9.69C84.26,40.36,84.35,35.79,82.49,32.57Z" fill="#787575"/><path d="M26.11,104.79a3.86,3.86,0,0,0,.78.16c-.84-1.93-3-2.77-5.13-3,.12-.12.21-.24.3-.33a42.69,42.69,0,0,1-10,4.87c-2.28.84-4.65,1.65-6.29,3.4A3.81,3.81,0,0,0,4.66,112a4.66,4.66,0,0,0,.63,2.59,14.6,14.6,0,0,0,1.35,2.17c4.07-3.13,8.71-5.9,13.72-5.21a44.75,44.75,0,0,0,4.7.79,5.34,5.34,0,0,0,2.25-.49c.48-1.44.9-2.91,1.25-4.42A9.77,9.77,0,0,0,26.11,104.79Z" fill="#6b6066"/><path d="M68.44,34.41c2.1-2.59,4.19-5.6,4.49-8.82a18.73,18.73,0,0,0-5.42-1.14,16.51,16.51,0,0,0-7.73,1.77c-6.47,3.16-10.84,9.66-12.88,16.61a17.43,17.43,0,0,0-.57,2.5C42.05,51.7,37.7,58,32,63.16c-5.24,4.76-11.59,8.55-15.28,14.62a17.8,17.8,0,0,0-2.16,13.9A13.29,13.29,0,0,0,23,100.52a42.78,42.78,0,0,0,5.31-9.89A136.37,136.37,0,0,1,43.24,63.4C50.85,53.06,60.35,44.33,68.44,34.41Z" fill="#6b6066"/><ellipse cx="44.08" cy="41.83" rx="36.46" ry="12.61" transform="translate(-16.57 38.03) rotate(-39.92)" fill="#745a8f"/><path d="M60,22.92C58.43,19.88,32,6.25,19.1.9c-.69-1-2.28-.57-2.76.42a4.83,4.83,0,0,0,0,3.25c3.06,12.66,6,25.38,8.84,38.08C18.32,50.5,14.45,57.93,15,62.53c5.49-1,10.7-3.91,15.46-7,10-6.43,19.47-14,26.52-23.61a14.19,14.19,0,0,0,1.52-2.59c.24-.39.45-.81.66-1.2C60,26.53,60.83,24.54,60,22.92Z" fill="#504d7a"/><path d="M60.32,24.09A2.62,2.62,0,0,0,60,23C58.43,19.88,32,6.25,19.1.9c-.69-1-2.28-.57-2.76.42a1.25,1.25,0,0,0-.12.3A52.34,52.34,0,0,1,30.54,12.33c7.52,7.55,5,13.29,14.74,20.06C49.45,35.28,57.62,27.55,60.32,24.09Z" fill="#745a8f"/><path d="M28.92,102.39a19.5,19.5,0,0,1,18.13.3.83.83,0,0,1,.42.36,1.07,1.07,0,0,1-.15,1,46,46,0,0,0-2.73,7c-.6,2.08-1.14,4.3-2.72,5.75-2,1.83-5.16,1.86-7.64.78s-4.44-3.1-6.29-5c-1.41-1.51-2.91-3.28-2.76-5.36C25.39,104.92,27.49,103.14,28.92,102.39Z" fill="#ffdd63"/><path d="M26.8,106.12A16.85,16.85,0,0,1,35,107.29a24.57,24.57,0,0,1,5.27,2.53,8.08,8.08,0,0,1,.81.6.71.71,0,0,1,.27.45c0,.3-.33.51-.63.48a1.66,1.66,0,0,1-.78-.42,10.13,10.13,0,0,0-3-1.59,5.23,5.23,0,0,0-1.79-.27,19.45,19.45,0,0,0-2.55.57,6,6,0,0,1-5.78-2.11,1.35,1.35,0,0,1-.36-.75C26.5,106.51,26.68,106.15,26.8,106.12Z" fill="#f5be40"/><path d="M24,103.62a16.78,16.78,0,0,0-7.19-15.4,31.28,31.28,0,0,0-5-2.56L8.88,84.4a1.82,1.82,0,0,0-.54-.15c-.63,0-1,.66-1.25,1.26-1.17,3.43-.48,7.22-.9,10.83-.18,1.63-.6,3.19-.78,4.82a3.32,3.32,0,0,0,.06,1.44A3,3,0,0,0,6.67,104a13.85,13.85,0,0,0,9,2.65c2.1-.15,4.23-.78,6.26-.24a2.55,2.55,0,0,0,1.05.15C24.13,106.3,23.89,104.64,24,103.62Z" fill="#ffdd63"/><path d="M22,102.42a36,36,0,0,0-10-7.94,3.69,3.69,0,0,0-2-.57.43.43,0,0,0-.33.15c-.15.24.15.51.42.63a8,8,0,0,1,3.45,3.13c.3.51.54,1.05.83,1.53a12.45,12.45,0,0,0,1.92,2.38,9.46,9.46,0,0,0,2.58,2,5.38,5.38,0,0,0,2.9.48c.27,0,.63-.06.78-.33C22.81,103.47,22.3,102.72,22,102.42Z" fill="#f5be40"/><path d="M23.77,100.85c-1,.24-2,2.5-2.66,4-.36.87-1.05,1.47-.51,2.28.36.54,3.56,3.28,4.91,2.29a3.91,3.91,0,0,0,1.38-2.59c.15-.57.9-3,.72-3.67S24.82,100.61,23.77,100.85Z" fill="#ffdd63"/><path d="M25.51,109.46a3.91,3.91,0,0,0,1.38-2.59c.15-.57.9-3,.72-3.67,0-.06-.06-.12-.12-.21a.23.23,0,0,0-.15.06.82.82,0,0,0-.18.36,4.05,4.05,0,0,1-1,1.93,3.38,3.38,0,0,1-2.22.81,22.07,22.07,0,0,1-2.43-.18,1.9,1.9,0,0,0-.71,0,1.11,1.11,0,0,0-.33.15,1,1,0,0,0,.12,1C21,107.71,24.16,110.45,25.51,109.46Z" fill="#f5be40"/><polyline points="100 198.82 100 200.32 98.5 200.32" fill="none" stroke="#8e74a5" stroke-linecap="round" stroke-miterlimit="10"/><line x1="92.47" y1="200.32" x2="5.02" y2="200.32" fill="none" stroke="#8e74a5" stroke-linecap="round" stroke-miterlimit="10" stroke-dasharray="3.02 6.03"/><polyline points="2 200.32 0.5 200.32 0.5 198.82" fill="none" stroke="#8e74a5" stroke-linecap="round" stroke-miterlimit="10"/><line x1="0.5" y1="192.76" x2="0.5" y2="5.03" fill="none" stroke="#8e74a5" stroke-linecap="round" stroke-miterlimit="10" stroke-dasharray="3.03 6.06"/><polyline points="0.5 2 0.5 0.5 2 0.5" fill="none" stroke="#8e74a5" stroke-linecap="round" stroke-miterlimit="10"/><line x1="8.03" y1="0.5" x2="95.49" y2="0.5" fill="none" stroke="#8e74a5" stroke-linecap="round" stroke-miterlimit="10" stroke-dasharray="3.02 6.03"/><polyline points="98.5 0.5 100 0.5 100 2" fill="none" stroke="#8e74a5" stroke-linecap="round" stroke-miterlimit="10"/><line x1="100" y1="8.06" x2="100" y2="195.79" fill="none" stroke="#8e74a5" stroke-linecap="round" stroke-miterlimit="10" stroke-dasharray="3.03 6.06"/></svg>