<svg xmlns="http://www.w3.org/2000/svg" viewBox="0 0 200 200"><line x1="1" y1="50.5" x2="2.5" y2="50.5" fill="none" stroke="#8c8c8c" stroke-linecap="round" stroke-miterlimit="10"/><line x1="8.5" y1="50.5" x2="95.5" y2="50.5" fill="none" stroke="#8c8c8c" stroke-linecap="round" stroke-miterlimit="10" stroke-dasharray="3 6"/><line x1="98.5" y1="50.5" x2="100" y2="50.5" fill="none" stroke="#8c8c8c" stroke-linecap="round" stroke-miterlimit="10"/><line x1="50.5" y1="1" x2="50.5" y2="2.5" fill="none" stroke="#8c8c8c" stroke-linecap="round" stroke-miterlimit="10"/><line x1="50.5" y1="8.5" x2="50.5" y2="95.5" fill="none" stroke="#8c8c8c" stroke-linecap="round" stroke-miterlimit="10" stroke-dasharray="3 6"/><line x1="50.5" y1="98.5" x2="50.5" y2="100" fill="none" stroke="#8c8c8c" stroke-linecap="round" stroke-miterlimit="10"/><line x1="100" y1="50.5" x2="101.5" y2="50.5" fill="none" stroke="#8c8c8c" stroke-linecap="round" stroke-miterlimit="10"/><line x1="107.5" y1="50.5" x2="194.5" y2="50.5" fill="none" stroke="#8c8c8c" stroke-linecap="round" stroke-miterlimit="10" stroke-dasharray="3 6"/><line x1="197.5" y1="50.5" x2="199" y2="50.5" fill="none" stroke="#8c8c8c" stroke-linecap="round" stroke-miterlimit="10"/><line x1="149.5" y1="1" x2="149.5" y2="2.5" fill="none" stroke="#8c8c8c" stroke-linecap="round" stroke-miterlimit="10"/><line x1="149.5" y1="8.5" x2="149.5" y2="95.5" fill="none" stroke="#8c8c8c" stroke-linecap="round" stroke-miterlimit="10" stroke-dasharray="3 6"/><line x1="149.5" y1="98.5" x2="149.5" y2="100" fill="none" stroke="#8c8c8c" stroke-linecap="round" stroke-miterlimit="10"/><line x1="1" y1="149.5" x2="2.5" y2="149.5" fill="none" stroke="#8c8c8c" stroke-linecap="round" stroke-miterlimit="10"/><line x1="8.5" y1="149.5" x2="95.5" y2="149.5" fill="none" stroke="#8c8c8c" stroke-linecap="round" stroke-miterlimit="10" stroke-dasharray="3 6"/><line x1="98.5" y1="149.5" x2="100" y2="149.5" fill="none" stroke="#8c8c8c" stroke-linecap="round" stroke-miterlimit="10"/><line x1="50.5" y1="100" x2="50.5" y2="101.5" fill="none" stroke="#8c8c8c" stroke-linecap="round" stroke-miterlimit="10"/><line x1="50.5" y1="107.5" x2="50.5" y2="194.5" fill="none" stroke="#8c8c8c" stroke-linecap="round" stroke-miterlimit="10" stroke-dasharray="3 6"/><line x1="50.5" y1="197.5" x2="50.5" y2="199" fill="none" stroke="#8c8c8c" stroke-linecap="round" stroke-miterlimit="10"/><line x1="100" y1="149.5" x2="101.5" y2="149.5" fill="none" stroke="#8c8c8c" stroke-linecap="round" stroke-miterlimit="10"/><line x1="107.5" y1="149.5" x2="194.5" y2="149.5" fill="none" stroke="#8c8c8c" stroke-linecap="round" stroke-miterlimit="10" stroke-dasharray="3 6"/><line x1="197.5" y1="149.5" x2="199" y2="149.5" fill="none" stroke="#8c8c8c" stroke-linecap="round" stroke-miterlimit="10"/><line x1="149.5" y1="100" x2="149.5" y2="101.5" fill="none" stroke="#8c8c8c" stroke-linecap="round" stroke-miterlimit="10"/><line x1="149.5" y1="107.5" x2="149.5" y2="194.5" fill="none" stroke="#8c8c8c" stroke-linecap="round" stroke-miterlimit="10" stroke-dasharray="3 6"/><line x1="149.5" y1="197.5" x2="149.5" y2="199" fill="none" stroke="#8c8c8c" stroke-linecap="round" stroke-miterlimit="10"/><path d="M199,1V199H1V1H199m1-1H0V200H200V0Z" fill="#8c8c8c"/><line y1="100" x2="200" y2="100" fill="none" stroke="#8c8c8c" stroke-miterlimit="10"/><line x1="100" x2="100" y2="200" fill="none" stroke="#8c8c8c" stroke-miterlimit="10"/></svg>